<svg width="21" height="20" viewBox="0 0 21 20" fill="none" xmlns="http://www.w3.org/2000/svg">
<rect x="0.333252" width="20" height="20" rx="10" fill="black"/>
<path d="M10.3348 5.08152C11.938 5.08152 12.1262 5.08867 12.7599 5.11726C13.3459 5.14346 13.6627 5.24113 13.8748 5.32451C14.1559 5.43409 14.356 5.56273 14.5656 5.77237C14.7752 5.982 14.9063 6.18211 15.0134 6.46321C15.0944 6.67522 15.1945 6.99206 15.2207 7.57808C15.2493 8.21175 15.2564 8.39995 15.2564 10.0032C15.2564 11.6064 15.2493 11.7946 15.2207 12.4283C15.1945 13.0143 15.0968 13.3311 15.0134 13.5431C14.9039 13.8242 14.7752 14.0244 14.5656 14.234C14.356 14.4436 14.1559 14.5746 13.8748 14.6818C13.6627 14.7628 13.3459 14.8629 12.7599 14.8891C12.1262 14.9177 11.938 14.9248 10.3348 14.9248C8.73155 14.9248 8.54336 14.9177 7.90969 14.8891C7.32366 14.8629 7.00683 14.7652 6.79481 14.6818C6.51371 14.5723 6.3136 14.4436 6.10397 14.234C5.89433 14.0244 5.76331 13.8242 5.65611 13.5431C5.57512 13.3311 5.47506 13.0143 5.44886 12.4283C5.42027 11.7946 5.41313 11.6064 5.41313 10.0032C5.41313 8.39995 5.42027 8.21175 5.44886 7.57808C5.47506 6.99206 5.57274 6.67522 5.65611 6.46321C5.7657 6.18211 5.89433 5.982 6.10397 5.77237C6.3136 5.56273 6.51371 5.43171 6.79481 5.32451C7.00683 5.24351 7.32366 5.14346 7.90969 5.11726C8.54336 5.08629 8.73393 5.08152 10.3348 5.08152ZM10.3348 4C8.70535 4 8.50048 4.00715 7.85966 4.03573C7.22123 4.06432 6.78528 4.16675 6.40413 4.31445C6.00868 4.46691 5.67517 4.67417 5.34166 5.00768C5.00815 5.34119 4.80328 5.67708 4.64844 6.07014C4.50074 6.4513 4.3983 6.88724 4.36972 7.52806C4.34113 8.16649 4.33398 8.37136 4.33398 10.0008C4.33398 11.6302 4.34113 11.8351 4.36972 12.4759C4.3983 13.1143 4.50074 13.5503 4.64844 13.9338C4.8009 14.3293 5.00815 14.6628 5.34166 14.9963C5.67517 15.3298 6.01106 15.5347 6.40413 15.6895C6.78528 15.8372 7.22123 15.9396 7.86204 15.9682C8.50286 15.9968 8.70535 16.004 10.3372 16.004C11.969 16.004 12.1715 15.9968 12.8123 15.9682C13.4507 15.9396 13.8867 15.8372 14.2702 15.6895C14.6656 15.5371 14.9992 15.3298 15.3327 14.9963C15.6662 14.6628 15.871 14.3269 16.0259 13.9338C16.1736 13.5527 16.276 13.1167 16.3046 12.4759C16.3332 11.8351 16.3403 11.6326 16.3403 10.0008C16.3403 8.36898 16.3332 8.16649 16.3046 7.52567C16.276 6.88724 16.1736 6.4513 16.0259 6.06776C15.8734 5.67231 15.6662 5.3388 15.3327 5.00529C14.9992 4.67178 14.6633 4.46691 14.2702 4.31207C13.889 4.16437 13.4531 4.06194 12.8123 4.03335C12.1691 4.00715 11.9642 4 10.3348 4Z" fill="white"/>
<path d="M10.3348 5.08152C11.938 5.08152 12.1262 5.08867 12.7599 5.11726C13.3459 5.14346 13.6627 5.24113 13.8748 5.32451C14.1559 5.43409 14.356 5.56273 14.5656 5.77237C14.7752 5.982 14.9063 6.18211 15.0134 6.46321C15.0944 6.67522 15.1945 6.99206 15.2207 7.57808C15.2493 8.21175 15.2564 8.39995 15.2564 10.0032C15.2564 11.6064 15.2493 11.7946 15.2207 12.4283C15.1945 13.0143 15.0968 13.3311 15.0134 13.5431C14.9039 13.8242 14.7752 14.0244 14.5656 14.234C14.356 14.4436 14.1559 14.5746 13.8748 14.6818C13.6627 14.7628 13.3459 14.8629 12.7599 14.8891C12.1262 14.9177 11.938 14.9248 10.3348 14.9248C8.73155 14.9248 8.54336 14.9177 7.90969 14.8891C7.32366 14.8629 7.00683 14.7652 6.79481 14.6818C6.51371 14.5723 6.3136 14.4436 6.10397 14.234C5.89433 14.0244 5.76331 13.8242 5.65611 13.5431C5.57512 13.3311 5.47506 13.0143 5.44886 12.4283C5.42027 11.7946 5.41313 11.6064 5.41313 10.0032C5.41313 8.39995 5.42027 8.21175 5.44886 7.57808C5.47506 6.99206 5.57274 6.67522 5.65611 6.46321C5.7657 6.18211 5.89433 5.982 6.10397 5.77237C6.3136 5.56273 6.51371 5.43171 6.79481 5.32451C7.00683 5.24351 7.32366 5.14346 7.90969 5.11726C8.54336 5.08629 8.73393 5.08152 10.3348 5.08152Z" fill="white"/>
<path d="M10.3348 6.92059C8.63388 6.92059 7.2522 8.29989 7.2522 10.0032C7.2522 11.7065 8.6315 13.0858 10.3348 13.0858C12.0381 13.0858 13.4174 11.7065 13.4174 10.0032C13.4174 8.29989 12.0381 6.92059 10.3348 6.92059ZM10.3348 12.0019C9.22943 12.0019 8.33372 11.1061 8.33372 10.0008C8.33372 8.89545 9.22943 7.99974 10.3348 7.99974C11.4401 7.99974 12.3358 8.89545 12.3358 10.0008C12.3358 11.1061 11.4401 12.0019 10.3348 12.0019Z" fill="black"/>
<path d="M13.539 7.51613C13.9363 7.51613 14.2584 7.19403 14.2584 6.7967C14.2584 6.39937 13.9363 6.07727 13.539 6.07727C13.1417 6.07727 12.8196 6.39937 12.8196 6.7967C12.8196 7.19403 13.1417 7.51613 13.539 7.51613Z" fill="black"/>
</svg>
