<svg width="125" height="24" viewBox="0 0 125 24" fill="none" xmlns="http://www.w3.org/2000/svg">
<path d="M8.41193 1.54545H12.571V13.6136C12.5653 14.7443 12.2955 15.733 11.7614 16.5795C11.2273 17.4205 10.4886 18.0739 9.54545 18.5398C8.60795 19.0057 7.52273 19.2386 6.28977 19.2386C5.19886 19.2386 4.20739 19.0483 3.31534 18.6676C2.42898 18.2869 1.72159 17.696 1.19318 16.8949C0.670455 16.0937 0.411932 15.0682 0.417614 13.8182H4.61932C4.63636 14.267 4.72159 14.6506 4.875 14.9688C5.03409 15.2812 5.25284 15.517 5.53125 15.6761C5.80966 15.8352 6.14205 15.9148 6.52841 15.9148C6.93182 15.9148 7.27273 15.8295 7.55114 15.6591C7.82955 15.483 8.03977 15.2244 8.18182 14.8835C8.32955 14.5426 8.40625 14.1193 8.41193 13.6136V1.54545ZM21.3388 19.2472C19.9695 19.2472 18.7876 18.9773 17.7933 18.4375C16.8047 17.892 16.0433 17.1165 15.5092 16.1108C14.9808 15.0994 14.7166 13.8977 14.7166 12.5057C14.7166 11.1534 14.9837 9.97159 15.5178 8.96023C16.0518 7.94318 16.8047 7.15341 17.7763 6.59091C18.7479 6.02273 19.8928 5.73864 21.2109 5.73864C22.1428 5.73864 22.995 5.88352 23.7678 6.17329C24.5405 6.46307 25.2081 6.89205 25.7706 7.46023C26.3331 8.02841 26.7706 8.73011 27.0831 9.56534C27.3956 10.3949 27.5518 11.3466 27.5518 12.4205V13.4602H16.174V11.0398H23.674C23.6683 10.5966 23.5632 10.2017 23.3587 9.85511C23.1541 9.50852 22.8729 9.23864 22.5149 9.04545C22.1626 8.84659 21.7564 8.74716 21.2962 8.74716C20.8303 8.74716 20.4126 8.85227 20.0433 9.0625C19.674 9.26705 19.3814 9.5483 19.1655 9.90625C18.9496 10.2585 18.8359 10.6591 18.8246 11.108V13.571C18.8246 14.1051 18.9297 14.5739 19.1399 14.9773C19.3501 15.375 19.6484 15.6847 20.0348 15.9062C20.4212 16.1278 20.8814 16.2386 21.4155 16.2386C21.7848 16.2386 22.12 16.1875 22.4212 16.0852C22.7223 15.983 22.9808 15.8324 23.1967 15.6335C23.4126 15.4347 23.5746 15.1903 23.6825 14.9006L27.5092 15.0114C27.3501 15.8693 27.0007 16.6165 26.4609 17.2528C25.9268 17.8835 25.2251 18.375 24.3558 18.7273C23.4865 19.0739 22.4808 19.2472 21.3388 19.2472ZM31.9858 19L28.5767 5.90909H32.7614L34.5256 14.2955H34.6364L36.5284 5.90909H40.6108L42.554 14.2358H42.6648L44.3778 5.90909H48.5625L45.1449 19H40.6875L38.642 11.3722H38.4972L36.4517 19H31.9858ZM56.0732 19.2472C54.7038 19.2472 53.522 18.9773 52.5277 18.4375C51.5391 17.892 50.7777 17.1165 50.2436 16.1108C49.7152 15.0994 49.451 13.8977 49.451 12.5057C49.451 11.1534 49.718 9.97159 50.2521 8.96023C50.7862 7.94318 51.5391 7.15341 52.5107 6.59091C53.4822 6.02273 54.6271 5.73864 55.9453 5.73864C56.8771 5.73864 57.7294 5.88352 58.5021 6.17329C59.2749 6.46307 59.9425 6.89205 60.505 7.46023C61.0675 8.02841 61.505 8.73011 61.8175 9.56534C62.13 10.3949 62.2862 11.3466 62.2862 12.4205V13.4602H50.9084V11.0398H58.4084C58.4027 10.5966 58.2976 10.2017 58.093 9.85511C57.8885 9.50852 57.6072 9.23864 57.2493 9.04545C56.897 8.84659 56.4908 8.74716 56.0305 8.74716C55.5646 8.74716 55.147 8.85227 54.7777 9.0625C54.4084 9.26705 54.1158 9.5483 53.8999 9.90625C53.6839 10.2585 53.5703 10.6591 53.5589 11.108V13.571C53.5589 14.1051 53.6641 14.5739 53.8743 14.9773C54.0845 15.375 54.3828 15.6847 54.7692 15.9062C55.1555 16.1278 55.6158 16.2386 56.1499 16.2386C56.5192 16.2386 56.8544 16.1875 57.1555 16.0852C57.4567 15.983 57.7152 15.8324 57.9311 15.6335C58.147 15.4347 58.3089 15.1903 58.4169 14.9006L62.2436 15.0114C62.0845 15.8693 61.7351 16.6165 61.1953 17.2528C60.6612 17.8835 59.9595 18.375 59.0902 18.7273C58.2209 19.0739 57.2152 19.2472 56.0732 19.2472ZM64.4148 19V5.90909H68.4631V8.29545H68.5994C68.8381 7.43182 69.2273 6.78977 69.767 6.36932C70.3068 5.94318 70.9347 5.73011 71.6506 5.73011C71.8438 5.73011 72.0426 5.74432 72.2472 5.77273C72.4517 5.79545 72.642 5.83239 72.8182 5.88352V9.50568C72.6193 9.4375 72.358 9.38352 72.0341 9.34375C71.7159 9.30398 71.4318 9.28409 71.1818 9.28409C70.6875 9.28409 70.2415 9.39489 69.8438 9.61648C69.4517 9.83239 69.142 10.1364 68.9148 10.5284C68.6932 10.9148 68.5824 11.3693 68.5824 11.892V19H64.4148ZM85.9453 9.90625L82.1186 10.0085C82.0788 9.7358 81.9709 9.49432 81.7947 9.28409C81.6186 9.06818 81.3885 8.90057 81.1044 8.78125C80.826 8.65625 80.5021 8.59375 80.1328 8.59375C79.6499 8.59375 79.2379 8.69034 78.897 8.88352C78.5618 9.0767 78.397 9.33807 78.4027 9.66761C78.397 9.9233 78.4993 10.1449 78.7095 10.3324C78.9254 10.5199 79.3089 10.6705 79.8601 10.7841L82.3828 11.2614C83.6896 11.5114 84.6612 11.9261 85.2976 12.5057C85.9396 13.0852 86.2635 13.8523 86.2692 14.8068C86.2635 15.7045 85.9964 16.4858 85.468 17.1506C84.9453 17.8153 84.2294 18.3324 83.3203 18.7017C82.4112 19.0653 81.3714 19.2472 80.201 19.2472C78.3317 19.2472 76.8572 18.8636 75.7777 18.0966C74.7038 17.3239 74.0902 16.2898 73.9368 14.9943L78.0533 14.892C78.1442 15.3693 78.38 15.733 78.7607 15.983C79.1413 16.233 79.6271 16.358 80.218 16.358C80.7521 16.358 81.1868 16.2585 81.522 16.0597C81.8572 15.8608 82.0277 15.5966 82.0334 15.267C82.0277 14.9716 81.897 14.7358 81.6413 14.5597C81.3857 14.3778 80.9851 14.2358 80.4396 14.1335L78.1555 13.6989C76.843 13.4602 75.8658 13.0199 75.2237 12.3778C74.5817 11.7301 74.2635 10.9062 74.2692 9.90625C74.2635 9.03125 74.4964 8.28409 74.968 7.66477C75.4396 7.03977 76.1101 6.5625 76.9794 6.23295C77.8487 5.90341 78.8743 5.73864 80.0561 5.73864C81.8288 5.73864 83.2266 6.1108 84.2493 6.85511C85.272 7.59375 85.8374 8.6108 85.9453 9.90625ZM92.4886 1.54545V19H88.321V1.54545H92.4886ZM95.1413 19V5.90909H99.3089V19H95.1413ZM97.2294 4.38352C96.6442 4.38352 96.1413 4.19034 95.7209 3.80398C95.3004 3.41193 95.0902 2.94034 95.0902 2.3892C95.0902 1.84375 95.3004 1.37784 95.7209 0.991477C96.1413 0.599431 96.6442 0.403408 97.2294 0.403408C97.8203 0.403408 98.3232 0.599431 98.7379 0.991477C99.1584 1.37784 99.3686 1.84375 99.3686 2.3892C99.3686 2.94034 99.1584 3.41193 98.7379 3.80398C98.3232 4.19034 97.8203 4.38352 97.2294 4.38352ZM109.402 5.90909V8.97727H100.982V5.90909H109.402ZM102.737 19V5.24432C102.737 4.23295 102.928 3.39489 103.308 2.73011C103.689 2.05966 104.217 1.55966 104.893 1.23011C105.57 0.894886 106.351 0.727272 107.237 0.727272C107.817 0.727272 108.362 0.772727 108.874 0.863636C109.391 0.948864 109.774 1.02557 110.024 1.09375L109.359 4.14489C109.206 4.09375 109.018 4.05114 108.797 4.01704C108.581 3.98295 108.376 3.96591 108.183 3.96591C107.695 3.96591 107.359 4.07386 107.178 4.28977C106.996 4.50568 106.905 4.80114 106.905 5.17614V19H102.737ZM113.955 23.9091C113.455 23.9091 112.984 23.8693 112.54 23.7898C112.097 23.7159 111.717 23.6165 111.398 23.4915L112.319 20.4659C112.728 20.6023 113.097 20.6818 113.427 20.7045C113.762 20.7273 114.049 20.6733 114.288 20.5426C114.532 20.4176 114.719 20.1932 114.85 19.8693L115.012 19.4773L110.359 5.90909H114.722L117.134 15.25H117.271L119.717 5.90909H124.106L119.171 20.2528C118.933 20.9688 118.594 21.5994 118.157 22.1449C117.725 22.696 117.165 23.1278 116.478 23.4403C115.796 23.7528 114.955 23.9091 113.955 23.9091Z" fill="#B45309"/>
</svg>
