<svg width="26" height="26" viewBox="0 0 26 26" fill="none" xmlns="http://www.w3.org/2000/svg">
<path d="M8.57849 14.7892C8.84821 14.2508 9 13.6432 9 13C9 12.3568 8.84821 11.7492 8.57849 11.2108M8.57849 14.7892C7.92179 16.1001 6.56599 17 5 17C2.79087 17 1 15.2092 1 13C1 10.7908 2.79087 9 5 9C6.56599 9 7.92179 9.89989 8.57849 11.2108M8.57849 14.7892L17.4215 19.2108M8.57849 11.2108L17.4215 6.78924M17.4215 19.2108C17.1517 19.7492 17 20.3568 17 21C17 23.2092 18.7908 25 21 25C23.2092 25 25 23.2092 25 21C25 18.7908 23.2092 17 21 17C19.434 17 18.0783 17.8999 17.4215 19.2108ZM17.4215 6.78924C18.0783 8.10011 19.434 9 21 9C23.2092 9 25 7.20913 25 5C25 2.79087 23.2092 1 21 1C18.7908 1 17 2.79087 17 5C17 5.64316 17.1517 6.25087 17.4215 6.78924Z" stroke="#9A6A50" stroke-width="1.13559" stroke-linecap="round" stroke-linejoin="round"/>
</svg>
