<svg width="24" height="24" viewBox="0 0 24 24" fill="none" xmlns="http://www.w3.org/2000/svg">
<path d="M11.106 2.97044C11.5264 1.67652 13.357 1.67652 13.7773 2.97044L15.2795 7.59354C15.4676 8.17221 16.0067 8.56399 16.6153 8.56399H21.4763C22.8368 8.56399 23.4025 10.3049 22.3018 11.1046L18.3691 13.9619C17.8769 14.3194 17.6708 14.9534 17.8589 15.532L19.3611 20.1551C19.7814 21.449 18.3006 22.5251 17.1998 21.7254L13.2672 18.8681C12.775 18.5105 12.1084 18.5105 11.6162 18.8681L7.68352 21.7254C6.58286 22.5251 5.10191 21.449 5.52233 20.1551L7.02447 15.532C7.21248 14.9534 7.0065 14.3194 6.51428 13.9619L2.58163 11.1046C1.48094 10.3049 2.04662 8.56399 3.40712 8.56399H8.26815C8.87659 8.56399 9.41582 8.17221 9.60385 7.59354L11.106 2.97044Z" fill="#B45309"/>
</svg>
