<svg width="21" height="20" viewBox="0 0 21 20" fill="none" xmlns="http://www.w3.org/2000/svg">
<rect x="0.666748" width="20" height="20" rx="10" fill="black"/>
<path d="M8.83685 15.275C13.2719 15.275 15.6969 11.6 15.6969 8.41498C15.6969 8.30998 15.6969 8.20498 15.6919 8.10498C16.1619 7.76498 16.5719 7.33998 16.8969 6.85498C16.4669 7.04498 16.0019 7.17498 15.5119 7.23498C16.0119 6.93498 16.3919 6.46498 16.5719 5.89998C16.1069 6.17498 15.5919 6.37498 15.0419 6.48498C14.6019 6.01498 13.9769 5.72498 13.2819 5.72498C11.9519 5.72498 10.8719 6.80498 10.8719 8.13498C10.8719 8.32498 10.8919 8.50998 10.9369 8.68498C8.93185 8.58498 7.15686 7.62498 5.96686 6.16498C5.76186 6.51998 5.64186 6.93498 5.64186 7.37498C5.64186 8.20998 6.06686 8.94998 6.71686 9.37998C6.32186 9.36998 5.95186 9.25998 5.62686 9.07998C5.62686 9.08998 5.62686 9.09998 5.62686 9.10998C5.62686 10.28 6.45686 11.25 7.56185 11.475C7.36186 11.53 7.14686 11.56 6.92686 11.56C6.77186 11.56 6.62186 11.545 6.47186 11.515C6.77686 12.475 7.66686 13.17 8.72186 13.19C7.89686 13.835 6.85686 14.22 5.72686 14.22C5.53186 14.22 5.34186 14.21 5.15186 14.185C6.20686 14.875 7.47685 15.275 8.83685 15.275Z" fill="white"/>
</svg>
